<?xml version="1.0" encoding="utf-8"?>
<!-- Generator: Adobe Illustrator 25.4.1, SVG Export Plug-In . SVG Version: 6.00 Build 0)  -->
<svg version="1.2" baseProfile="tiny" id="Layer_1" xmlns="http://www.w3.org/2000/svg" xmlns:xlink="http://www.w3.org/1999/xlink"
	 x="0px" y="0px" viewBox="0 0 1150 436.352" overflow="visible" xml:space="preserve">
<g>
	<path fill="#84EAAD" d="M305.622,218.065c0-11.961,9.696-21.657,21.657-21.657c11.961,0,21.657,9.696,21.657,21.657
		c0,11.961-9.696,21.658-21.657,21.658C315.318,239.723,305.622,230.026,305.622,218.065L305.622,218.065z"/>
	<path fill="#84EAAD" d="M393.066,218.065c0-11.961,9.696-21.657,21.657-21.657c11.962,0,21.658,9.696,21.658,21.657
		c0,11.961-9.696,21.658-21.658,21.658C402.762,239.723,393.066,230.026,393.066,218.065L393.066,218.065z"/>
	<path fill="#84EAAD" d="M374.171,297.48c-4.48,11.09,0.877,23.712,11.968,28.193c11.09,4.481,23.712-0.877,28.193-11.967
		c4.481-11.09-0.878-23.713-11.967-28.194C391.275,281.032,378.652,286.39,374.171,297.48L374.171,297.48z"/>
	<path fill="#84EAAD" d="M374.171,138.876c-4.48-11.091,0.877-23.713,11.968-28.194c11.09-4.48,23.712,0.878,28.193,11.967
		c4.481,11.091-0.878,23.713-11.967,28.194C391.275,155.323,378.652,149.966,374.171,138.876L374.171,138.876z"/>
	<path fill="#84EAAD" d="M372.45,63.905l-77.133,77.131c-19.74-19.74-47.012-31.948-77.139-31.948
		c-30.128,0-57.401,12.208-77.141,31.948L63.905,63.905C103.386,24.416,157.93,0,218.178,0C278.425,0,332.969,24.416,372.45,63.905
		L372.45,63.905z"/>
	<path fill="#FFFFFF" d="M372.447,372.446c-39.481,39.489-94.025,63.906-154.273,63.906c-60.247,0-114.791-24.417-154.272-63.906
		l77.132-77.132c19.74,19.74,47.013,31.949,77.14,31.949c30.128,0,57.4-12.209,77.14-31.949L372.447,372.446L372.447,372.446z"/>
	<path fill="#00B881" d="M109.089,218.178c0,30.128,12.208,57.4,31.948,77.14L63.905,372.45C24.417,332.97,0,278.425,0,218.178
		C0,157.93,24.417,103.386,63.905,63.905l77.132,77.131C121.297,160.778,109.089,188.05,109.089,218.178L109.089,218.178z"/>
	<path fill="#84EAAD" d="M713.979,253.551l35.366,35.367c-18.104,18.104-43.116,29.305-70.744,29.305
		c-27.623,0-52.636-11.201-70.74-29.305c-18.108-18.101-29.308-43.113-29.308-70.744c0-27.627,11.2-52.64,29.304-70.744
		c18.105-18.104,43.117-29.301,70.744-29.301c27.631,0,52.644,11.2,70.744,29.305L713.979,182.8
		c-9.052-9.056-21.559-14.658-35.378-14.658c-13.815,0-26.325,5.602-35.377,14.655c-9.052,9.052-14.654,21.562-14.654,35.377
		c0,13.819,5.602,26.325,14.657,35.377c9.053,9.053,21.562,14.655,35.374,14.655C692.417,268.206,704.927,262.604,713.979,253.551
		L713.979,253.551z"/>
	<path fill="#84EAAD" d="M875.527,316.386c-23.608,0-45.804-9.193-62.498-25.887s-25.887-38.889-25.887-62.498V124.842h50.025
		v103.159c0,21.153,17.208,38.361,38.36,38.361c21.152,0,38.36-17.208,38.36-38.361V124.842h50.025v103.159
		c0,23.609-9.194,45.804-25.887,62.498C921.331,307.193,899.136,316.386,875.527,316.386L875.527,316.386z"/>
	<polygon fill="#84EAAD" points="1150,124.842 1003.7,124.842 1003.7,174.867 1051.84,174.867 1051.84,311.508 1101.86,311.508 
		1101.86,174.867 1150,174.867 1150,124.842 	"/>
</g>
</svg>
