<?xml version="1.0" encoding="UTF-8"?> <!-- Generator: Adobe Illustrator 25.2.3, SVG Export Plug-In . SVG Version: 6.00 Build 0) --> <svg xmlns="http://www.w3.org/2000/svg" xmlns:xlink="http://www.w3.org/1999/xlink" version="1.1" id="Layer_1" x="0px" y="0px" viewBox="0 0 605.6 232.9" style="enable-background:new 0 0 605.6 232.9;" xml:space="preserve"> <style type="text/css"> .st0{fill:#A6A6A6;} .st1{opacity:0.49;fill:#A6A6A6;} .st2{fill:#0A3026;} .st3{fill:#7CDDC1;} .st4{fill:#00B980;} </style> <g> <path class="st0" d="M413.7,120.5V65.9h25.9v51.7c0,14,9.4,20.7,20.5,20.7c11.1,0,19.6-6.4,19.6-20V65.9h26.8v53.9 c0,31.4-27.6,44.8-46.7,45.2C438.2,165.3,413.7,150.9,413.7,120.5z"></path> <path class="st0" d="M553.1,92.6h-25.8V66.1h78.4v26.4h-24.9v73.8h-27.7V92.6z"></path> </g> <path class="st0" d="M355.6,89.8c7.2,0,13.6,2.9,18.3,7.6L393,78.3c-9.6-9.6-22.8-15.5-37.4-15.5l0,0c-29.2,0-52.9,23.7-52.9,52.9 s23.7,52.9,52.9,52.9c14.6,0,27.8-5.9,37.4-15.4l-18.8-19.4c-4.7,4.9-11.3,7.9-18.6,7.9c-14.3,0-25.9-11.6-25.9-25.9 S341.3,89.8,355.6,89.8"></path> <circle class="st0" cx="173.7" cy="116.3" r="12"></circle> <circle class="st0" cx="209.1" cy="162.9" r="12"></circle> <circle class="st0" cx="220.3" cy="116.3" r="12"></circle> <circle class="st0" cx="209.1" cy="69.8" r="12"></circle> <g> <path class="st1" d="M116.5,59.4c15.7,0,30,6.4,40.3,16.7l0,0C146.5,65.8,132.2,59.4,116.5,59.4C116.5,59.4,116.5,59.4,116.5,59.4z "></path> <path class="st1" d="M157.4,156.2c-0.2,0.2-0.4,0.4-0.6,0.6l24.7,24.3L157.4,156.2z"></path> <path class="st1" d="M116.5,232.9c32.1,0,61.1-13,82.2-34l-0.2-0.2c-21,21.1-50.1,34.1-82.2,34.2 C116.3,232.9,116.4,232.9,116.5,232.9z"></path> <path class="st2" d="M116,173.5c0.1,0,0.2,0,0.2,0c-16-0.1-30.5-6.8-40.9-17.5c-9.9-10.3-16-24.2-16-39.6 c0-15.6,6.3-29.8,16.5-40.1c0,0,0,0,0,0L33.7,34.6C54.8,13.2,84.1,0,116.5,0c0,0,0,0,0,0C84.1,0,54.7,13.2,33.6,34.6 C12.8,55.6,0,84.6,0,116.5c0,31.8,12.8,60.7,33.5,81.7c0.1,0.1,0.3,0.3,0.4,0.4l41.8-41.8C86,167.1,100.3,173.5,116,173.5z"></path> <path class="st1" d="M75.9,76.3L75.9,76.3c10.4-10.4,24.7-16.9,40.6-16.9c0,0,0,0,0,0C100.6,59.4,86.3,65.9,75.9,76.3z"></path> <path class="st1" d="M156.8,76.1C156.8,76.1,156.8,76.1,156.8,76.1l42-42C177.8,13,148.7,0,116.5,0c0,0,0,0,0,0 c32.2,0,61.3,13,82.3,34.1L156.8,76.1z"></path> <path class="st1" d="M75.9,76.3c10.4-10.5,24.7-16.9,40.5-16.9c0,0,0,0,0,0c0,0,0,0,0,0c15.7,0,30,6.4,40.3,16.7l42-42 C177.8,13,148.6,0,116.5,0C84.1,0,54.8,13.2,33.7,34.6L75.9,76.3z"></path> <path class="st3" d="M75.9,76.3c10.4-10.5,24.7-16.9,40.5-16.9c0,0,0,0,0,0c0,0,0,0,0,0c15.7,0,30,6.4,40.3,16.7l42-42 C177.8,13,148.6,0,116.5,0C84.1,0,54.8,13.2,33.7,34.6L75.9,76.3z"></path> <path class="st1" d="M33.7,198.8c21.1,21.1,50.2,34.1,82.4,34.1c0.1,0,0.2,0,0.2,0c-32.2-0.1-61.3-13.2-82.4-34.3L33.7,198.8z"></path> <path class="st1" d="M181.5,181.1l17,17.6c0.1-0.1,0.3-0.3,0.4-0.4L181.5,181.1z"></path> <path class="st1" d="M156.8,156.8l-0.2-0.2c-10.3,10.4-24.6,16.9-40.3,16.9c0.1,0,0.2,0,0.2,0C132.2,173.5,146.5,167.1,156.8,156.8 z"></path> <path class="st1" d="M156.8,156.8c-10.3,10.3-24.6,16.7-40.3,16.7c-0.1,0-0.2,0-0.2,0c-0.1,0-0.2,0-0.2,0c-15.7,0-30-6.4-40.3-16.7 l-41.8,41.8c21,21.2,50.2,34.3,82.4,34.3c32.1-0.1,61.2-13.1,82.2-34.2l-17-17.6L156.8,156.8z"></path> <path class="st4" d="M156.8,156.8c-10.3,10.3-24.6,16.7-40.3,16.7c-0.1,0-0.2,0-0.2,0c-0.1,0-0.2,0-0.2,0c-15.7,0-30-6.4-40.3-16.7 l-41.8,41.8c21,21.2,50.2,34.3,82.4,34.3c32.1-0.1,61.2-13.1,82.2-34.2l-17-17.6L156.8,156.8z"></path> </g> </svg> 