<?xml version="1.0" encoding="utf-8"?>
<!-- Generator: Adobe Illustrator 25.2.3, SVG Export Plug-In . SVG Version: 6.00 Build 0)  -->
<svg version="1.1" id="Layer_1" xmlns="http://www.w3.org/2000/svg" xmlns:xlink="http://www.w3.org/1999/xlink" x="0px" y="0px"
	 viewBox="0 0 2633.7 232.9" style="enable-background:new 0 0 2633.7 232.9;" xml:space="preserve">
<style type="text/css">
	.st0{fill:#A6A6A6;}
	.st1{opacity:0.49;fill:#A6A6A6;enable-background:new    ;}
	.st2{fill:#0A3026;}
	.st3{fill:#7CDDC1;}
	.st4{fill:#00B980;}
	.st5{fill:#C2C4C6;}
</style>
<g>
	<path class="st0" d="M413.7,120.5V65.9h25.9v51.7c0,14,9.4,20.7,20.5,20.7s19.6-6.4,19.6-20V65.9h26.8v53.9
		c0,31.4-27.6,44.8-46.7,45.2C438.2,165.3,413.7,150.9,413.7,120.5z"/>
	<path class="st0" d="M553.1,92.6h-25.8V66.1h78.4v26.4h-24.9v73.8h-27.7V92.6z"/>
</g>
<path class="st0" d="M355.6,89.8c7.2,0,13.6,2.9,18.3,7.6L393,78.3c-9.6-9.6-22.8-15.5-37.4-15.5l0,0c-29.2,0-52.9,23.7-52.9,52.9
	s23.7,52.9,52.9,52.9c14.6,0,27.8-5.9,37.4-15.4l-18.8-19.4c-4.7,4.9-11.3,7.9-18.6,7.9c-14.3,0-25.9-11.6-25.9-25.9
	S341.3,89.8,355.6,89.8"/>
<circle class="st0" cx="173.7" cy="116.3" r="12"/>
<circle class="st0" cx="209.1" cy="162.9" r="12"/>
<circle class="st0" cx="220.3" cy="116.3" r="12"/>
<circle class="st0" cx="209.1" cy="69.8" r="12"/>
<g>
	<path class="st1" d="M116.5,59.4c15.7,0,30,6.4,40.3,16.7l0,0C146.5,65.8,132.2,59.4,116.5,59.4L116.5,59.4z"/>
	<path class="st1" d="M157.4,156.2c-0.2,0.2-0.4,0.4-0.6,0.6l24.7,24.3L157.4,156.2z"/>
	<path class="st1" d="M116.5,232.9c32.1,0,61.1-13,82.2-34l-0.2-0.2c-21,21.1-50.1,34.1-82.2,34.2
		C116.3,232.9,116.4,232.9,116.5,232.9z"/>
	<path class="st2" d="M116,173.5c0.1,0,0.2,0,0.2,0c-16-0.1-30.5-6.8-40.9-17.5c-9.9-10.3-16-24.2-16-39.6
		c0-15.6,6.3-29.8,16.5-40.1l0,0L33.7,34.6C54.8,13.2,84.1,0,116.5,0l0,0C84.1,0,54.7,13.2,33.6,34.6C12.8,55.6,0,84.6,0,116.5
		c0,31.8,12.8,60.7,33.5,81.7c0.1,0.1,0.3,0.3,0.4,0.4l41.8-41.8C86,167.1,100.3,173.5,116,173.5z"/>
	<path class="st1" d="M75.9,76.3L75.9,76.3c10.4-10.4,24.7-16.9,40.6-16.9l0,0C100.6,59.4,86.3,65.9,75.9,76.3z"/>
	<path class="st1" d="M156.8,76.1L156.8,76.1l42-42C177.8,13,148.7,0,116.5,0l0,0c32.2,0,61.3,13,82.3,34.1L156.8,76.1z"/>
	<path class="st1" d="M75.9,76.3c10.4-10.5,24.7-16.9,40.5-16.9l0,0l0,0c15.7,0,30,6.4,40.3,16.7l42-42C177.8,13,148.6,0,116.5,0
		C84.1,0,54.8,13.2,33.7,34.6L75.9,76.3z"/>
	<path class="st3" d="M75.9,76.3c10.4-10.5,24.7-16.9,40.5-16.9l0,0l0,0c15.7,0,30,6.4,40.3,16.7l42-42C177.8,13,148.6,0,116.5,0
		C84.1,0,54.8,13.2,33.7,34.6L75.9,76.3z"/>
	<path class="st1" d="M33.7,198.8c21.1,21.1,50.2,34.1,82.4,34.1c0.1,0,0.2,0,0.2,0c-32.2-0.1-61.3-13.2-82.4-34.3L33.7,198.8z"/>
	<path class="st1" d="M181.5,181.1l17,17.6c0.1-0.1,0.3-0.3,0.4-0.4L181.5,181.1z"/>
	<path class="st1" d="M156.8,156.8l-0.2-0.2c-10.3,10.4-24.6,16.9-40.3,16.9c0.1,0,0.2,0,0.2,0C132.2,173.5,146.5,167.1,156.8,156.8
		z"/>
	<path class="st1" d="M156.8,156.8c-10.3,10.3-24.6,16.7-40.3,16.7c-0.1,0-0.2,0-0.2,0c-0.1,0-0.2,0-0.2,0c-15.7,0-30-6.4-40.3-16.7
		L34,198.6c21,21.2,50.2,34.3,82.4,34.3c32.1-0.1,61.2-13.1,82.2-34.2l-17-17.6L156.8,156.8z"/>
	<path class="st4" d="M156.8,156.8c-10.3,10.3-24.6,16.7-40.3,16.7c-0.1,0-0.2,0-0.2,0c-0.1,0-0.2,0-0.2,0c-15.7,0-30-6.4-40.3-16.7
		L34,198.6c21,21.2,50.2,34.3,82.4,34.3c32.1-0.1,61.2-13.1,82.2-34.2l-17-17.6L156.8,156.8z"/>
</g>
<g>
	<path class="st5" d="M916.7,151c5.8,0,10.9-1,15.1-2.9c4.2-2,8.6-5.1,13.2-9.4l10.9,11.2c-10.6,11.8-23.5,17.6-38.7,17.6
		c-15.2,0-27.7-4.9-37.7-14.6c-10-9.8-15-22.1-15-37s5.1-27.3,15.3-37.3c10.2-9.9,23-14.9,38.6-14.9c15.5,0,28.5,5.7,38.9,17.2
		l-10.8,11.8c-4.8-4.6-9.3-7.8-13.6-9.6c-4.3-1.8-9.3-2.7-15-2.7c-10.1,0-18.6,3.3-25.5,9.8c-6.9,6.6-10.3,14.9-10.3,25.1
		c0,10.2,3.4,18.7,10.3,25.5C899.3,147.6,907.4,151,916.7,151z"/>
	<path class="st5" d="M990.8,143.5l-10,22.8h-18.1l44.2-100.3h18.1l44.2,100.3H1051l-10-22.8H990.8z M1034.1,127.9l-18.2-41.3
		l-18.2,41.3H1034.1z"/>
	<path class="st5" d="M1163,98.6c0,16.5-7.2,27-21.7,31.3l26.3,36.4h-21.5l-24-33.7h-22.2v33.7H1083V66.1h37.3
		c15.3,0,26.3,2.6,32.8,7.7S1163,87.3,1163,98.6z M1140.5,112.8c3.4-3,5.2-7.7,5.2-14.3c0-6.5-1.8-11-5.3-13.5
		c-3.5-2.4-9.9-3.7-18.9-3.7h-21.5v35.9h21.1C1130.6,117.3,1137.1,115.8,1140.5,112.8z"/>
	<path class="st5" d="M1231.3,166.4h-43.9V66.1h39c6.8,0,12.6,0.8,17.6,2.4c4.9,1.6,8.6,3.8,11,6.6c4.6,5.2,6.9,11,6.9,17.5
		c0,7.8-2.5,13.7-7.5,17.5c-1.8,1.3-3.1,2.2-3.7,2.5c-0.7,0.3-1.9,0.9-3.6,1.6c6.2,1.3,11.2,4.1,14.8,8.4c3.7,4.3,5.5,9.5,5.5,15.9
		c0,7-2.4,13.2-7.2,18.5C1254.6,163.2,1245,166.4,1231.3,166.4z M1204.3,107.7h21.5c12.2,0,18.4-4.2,18.4-12.5
		c0-4.8-1.5-8.2-4.4-10.3c-3-2.1-7.6-3.2-13.8-3.2h-21.7V107.7z M1204.3,150.7h26.5c6.2,0,11-1,14.3-2.9c3.3-2,4.9-5.7,4.9-11.1
		c0-8.9-7.1-13.3-21.4-13.3h-24.4V150.7z"/>
	<path class="st5" d="M1372.6,152.5c-10.1,9.9-22.7,14.8-37.6,14.8s-27.4-4.9-37.6-14.8c-10.1-9.9-15.2-22.2-15.2-37
		c0-14.8,5.1-27.1,15.2-37c10.1-9.9,22.7-14.8,37.6-14.8s27.4,4.9,37.6,14.8c10.1,9.9,15.2,22.2,15.2,37
		C1387.8,130.3,1382.7,142.6,1372.6,152.5z M1360.2,89.8c-6.8-7.1-15.2-10.6-25.2-10.6c-9.9,0-18.3,3.5-25.2,10.6
		c-6.8,7.1-10.3,15.7-10.3,25.7c0,10.1,3.4,18.7,10.3,25.7c6.8,7.1,15.2,10.6,25.2,10.6c9.9,0,18.3-3.5,25.2-10.6
		c6.8-7.1,10.3-15.7,10.3-25.7C1370.5,105.4,1367,96.8,1360.2,89.8z"/>
	<path class="st5" d="M1484.4,66.1h16.9v100.3h-18.4l-56.8-73.2v73.2h-16.9V66.1h16.9l58.2,74.9V66.1z"/>
	<path class="st5" d="M1590.9,143.4c4.6,5.4,10.8,8,18.6,8c7.8,0,14.1-2.7,18.6-8c4.6-5.4,6.9-12.6,6.9-21.8V66.1h16.9v56.2
		c0,14.4-4,25.6-11.9,33.4c-7.9,7.8-18.1,11.7-30.6,11.7c-12.4,0-22.6-3.9-30.6-11.7c-7.9-7.8-11.9-18.9-11.9-33.4V66.1h16.9v55.5
		C1584,130.8,1586.3,138,1590.9,143.4z"/>
	<path class="st5" d="M1716.4,81.6v84.8h-16.9V81.6h-30.4V66.1h77.7v15.5H1716.4z"/>
	<path class="st5" d="M1765.2,66.1h16.9v100.3h-16.9V66.1z"/>
	<path class="st5" d="M1810,166.4V66.1h16.9v84.2h45.8v16.1H1810z"/>
	<path class="st5" d="M1888.2,66.1h16.9v100.3h-16.9V66.1z"/>
	<path class="st5" d="M1964.8,81.6v84.8h-16.9V81.6h-30.4V66.1h77.7v15.5H1964.8z"/>
	<path class="st5" d="M2053,166.4h-17.2v-39.6l-37.3-60.7h18.5l27.4,45.6l27.4-45.6h18.5l-37.3,60.7V166.4z"/>
	<path class="st5" d="M2185.2,81.6v84.8h-16.9V81.6h-30.4V66.1h77.7v15.5H2185.2z"/>
	<path class="st5" d="M2310.2,152.5c-10.1,9.9-22.7,14.8-37.6,14.8s-27.4-4.9-37.6-14.8c-10.1-9.9-15.2-22.2-15.2-37
		c0-14.8,5.1-27.1,15.2-37c10.1-9.9,22.7-14.8,37.6-14.8s27.4,4.9,37.6,14.8c10.1,9.9,15.2,22.2,15.2,37
		C2325.4,130.3,2320.3,142.6,2310.2,152.5z M2297.8,89.8c-6.8-7.1-15.2-10.6-25.2-10.6c-9.9,0-18.3,3.5-25.2,10.6
		c-6.8,7.1-10.3,15.7-10.3,25.7c0,10.1,3.4,18.7,10.3,25.7c6.8,7.1,15.2,10.6,25.2,10.6c9.9,0,18.3-3.5,25.2-10.6
		c6.8-7.1,10.3-15.7,10.3-25.7C2308,105.4,2304.6,96.8,2297.8,89.8z"/>
	<path class="st5" d="M2342.8,66.1h16.9V115l45.9-48.9h21.5l-40.3,43.9l40.9,56.4h-20.1l-33.3-43.9l-14.6,15.8v28.1h-16.9V66.1z"/>
	<path class="st5" d="M2518.2,66.1V82h-53.5v26.5h48.1v15.1h-48.1v26.8h55.2v15.9h-72.2V66.1H2518.2z"/>
	<path class="st5" d="M2616.7,66.1h16.9v100.3h-18.4l-56.8-73.2v73.2h-16.9V66.1h16.9l58.2,74.9V66.1z"/>
</g>
</svg>
