<?xml version="1.0" encoding="utf-8"?>
<!-- Generator: Adobe Illustrator 25.2.3, SVG Export Plug-In . SVG Version: 6.00 Build 0)  -->
<svg version="1.1" id="Layer_1" xmlns="http://www.w3.org/2000/svg" xmlns:xlink="http://www.w3.org/1999/xlink" x="0px" y="0px"
	 viewBox="0 0 207.4 101.9" style="enable-background:new 0 0 207.4 101.9;" xml:space="preserve">
<style type="text/css">
	.st0{fill:#003E7E;}
	.st1{fill:#717275;}
	.st2{fill:#A0A2A4;}
</style>
<g>
	<path class="st0" d="M24.2,51.1c-0.1,0-0.3,0-0.6,0.1l-0.4,0.1c-0.5,0.1-1.3,0.2-2.4,0.2H6.5c-1.1,0-2.5-0.1-3.6-0.2
		c-0.5,0-0.9-0.2-1.1-0.3c-0.2-0.1-0.3-0.1-0.5-0.1c-0.4,0-0.5,0.4-0.6,0.8C0.7,51.9,0,55.2,0,55.8c0,0.2,0,0.7,0.5,0.7
		C0.9,56.5,1,56.1,1,56c0-0.2,0.2-0.6,0.6-1.2c0.5-0.7,1.2-0.9,3.4-1l5.2-0.1v14.6c0,3.3,0,6.1-0.2,7.7c-0.1,1-0.3,1.7-0.9,1.8
		c-0.4,0.1-0.8,0.1-1.3,0.1c-0.2,0-0.7,0-0.7,0.4c0,0.3,0.3,0.5,0.9,0.5c0.8,0,1.9,0,2.8-0.1c0.7,0,1.3,0,1.7,0c0.4,0,1,0,1.7,0
		c1.1,0,2.5,0.1,3.9,0.1c0.8,0,0.8-0.4,0.8-0.5c0-0.2-0.1-0.4-0.7-0.4c-0.5,0-1.3-0.1-1.8-0.1c-0.9-0.1-1.2-0.7-1.3-1.8
		C15,74.4,15,71.6,15,68.3V53.7l4.4,0.1c2.5,0.1,4,0.7,4.1,1.9l0,0.4c0,0.5,0.1,0.9,0.5,0.9c0.4,0,0.4-0.5,0.5-0.7
		c0-0.5,0-1.4,0.1-2.3c0-0.8,0-1.5,0-1.9C24.6,51.6,24.6,51.1,24.2,51.1z"/>
	<path class="st0" d="M41.6,50.8c-10.3,0-15,7.4-15,14.3c0,6.9,4.6,14.3,14.7,14.3c8.9,0,15.1-6.1,15.1-14.9
		C56.3,56.1,50.6,50.8,41.6,50.8z M42.7,77.3c-6.4,0-10.9-5.5-10.9-13.3c0-9.7,5.5-11.1,8.7-11.1c6.1,0,10.4,5.3,10.4,12.9
		C50.9,76.1,45.2,77.3,42.7,77.3z"/>
	<path class="st0" d="M200.7,51.1c-0.1,0-0.3,0-0.6,0.1l-0.4,0.1c-0.5,0.1-1.3,0.2-2.4,0.2H183c-1.1,0-2.5-0.1-3.6-0.2
		c-0.5,0-0.9-0.2-1.1-0.3c-0.2-0.1-0.3-0.1-0.5-0.1c-0.4,0-0.5,0.4-0.6,0.8c-0.1,0.2-0.8,3.6-0.8,4.2c0,0.2,0,0.7,0.5,0.7
		c0.4,0,0.5-0.3,0.5-0.5c0-0.2,0.2-0.6,0.6-1.2c0.5-0.7,1.2-0.9,3.4-1l5.2-0.1v14.6c0,3.3,0,6.1-0.2,7.7c-0.1,1-0.3,1.7-0.9,1.8
		c-0.4,0.1-0.8,0.1-1.3,0.1c-0.2,0-0.7,0-0.7,0.4c0,0.3,0.3,0.5,0.9,0.5c0.8,0,1.9,0,2.8-0.1c0.7,0,1.3,0,1.7,0c0.4,0,1,0,1.7,0
		c1.1,0,2.5,0.1,3.9,0.1c0.8,0,0.8-0.4,0.8-0.5c0-0.2-0.1-0.4-0.7-0.4c-0.5,0-1.3-0.1-1.8-0.1c-0.9-0.1-1.2-0.7-1.3-1.8
		c-0.2-1.5-0.2-4.4-0.2-7.7V53.7l4.4,0.1c2.5,0.1,4,0.7,4.1,1.9l0,0.4c0,0.5,0.1,0.9,0.5,0.9c0.4,0,0.4-0.5,0.5-0.7
		c0-0.5,0-1.4,0.1-2.3c0-0.8,0.1-1.5,0.1-1.9C201.1,51.6,201.1,51.1,200.7,51.1z"/>
	<path class="st0" d="M137.3,73.1c-0.4,0-0.5,0.3-0.5,0.7c-0.2,1.5-0.7,2.2-1.5,2.6c-0.9,0.4-2.4,0.4-3.3,0.4
		c-3.7,0-4.1-0.5-4.2-2.9c0-0.7,0-2.6,0-4.1c0-0.6,0-1.1,0-1.5v-2.8c0-0.2,0-0.2,0.1-0.2c0.8,0,4.4,0,5.1,0.1
		c1.4,0.2,1.8,0.8,1.9,1.3c0.1,0.3,0.1,0.6,0.1,0.9c0,0.1,0,0.2,0,0.3c0,0.3,0.2,0.5,0.5,0.5c0.5,0,0.5-0.5,0.5-0.8
		c0-0.1,0-0.6,0.1-1.2c0-0.4,0.1-0.9,0.1-1.2c0.1-1.2,0.2-1.9,0.2-2.2c0-0.2,0-0.3,0-0.4c0-0.3-0.2-0.4-0.4-0.4
		c-0.2,0-0.4,0.2-0.6,0.5l0,0.1c-0.3,0.3-0.8,0.4-1.6,0.5c-0.5,0-2.6,0.1-5.7,0.1c-0.1,0-0.1,0-0.1-0.2v-9.1c0-0.2,0-0.2,0.1-0.2
		c0.7,0,4.5,0.1,5.1,0.1c1.8,0.2,2.1,0.6,2.3,1.2c0.2,0.4,0.2,1,0.2,1.2c0,0.2,0,0.7,0.5,0.7c0.4,0,0.5-0.4,0.5-0.5
		c0-0.3,0.1-1,0.1-1.6c0-0.3,0-0.6,0.1-0.7c0.1-1.1,0.2-1.7,0.2-2c0-0.2,0.1-0.3,0.1-0.4c0-0.4-0.2-0.5-0.4-0.5
		c-0.1,0-0.3,0-0.4,0.1c-0.1,0-0.1,0-0.2,0.1c-0.3,0.1-1,0.2-1.5,0.2c-0.6,0-6.5,0-9,0c-0.4,0-1.1,0-1.9-0.1l-0.3,0
		c-0.4,0-0.9,0-1.4,0c-0.5,0-1,0-1.5,0c-0.4,0-0.9,0-0.9,0.5c0,0.5,0.5,0.5,0.8,0.5c0.6,0,1.1,0,1.4,0.1c1.1,0.2,1.4,0.8,1.4,1.9
		c0.1,1.1,0.1,2.1,0.1,7.6v6.3c0,3.3,0,6.1-0.2,7.6c-0.2,1.1-0.3,1.7-0.9,1.9c-0.4,0.1-0.8,0.1-1.3,0.1c-0.2,0-0.7,0-0.7,0.4
		c0,0.3,0.3,0.5,0.9,0.5c0.3,0,0.7,0,1.2,0c0.4,0,0.9,0,1.3,0c0.9,0,1.7,0,2,0c1,0,2.1,0,3.7,0.1l1,0c1.4,0,3.1,0.1,5.2,0.1
		c1.4,0,1.8,0,2.1-1.1c0.2-0.7,0.5-3.2,0.5-4C137.7,73.5,137.7,73.1,137.3,73.1z"/>
	<path class="st0" d="M117.3,77.9c-0.3,0-0.6,0-1-0.1l0,0c-0.5-0.1-2-0.4-3.9-2.4c-1.8-1.9-3.9-4.6-6.5-7.9l-1.2-1.5
		c3.3-2.7,4.7-5.1,4.7-8.1c0-2.7-1.6-4.5-2.5-5.1c-2-1.4-4.5-1.6-6.7-1.6c-0.5,0-1.5,0-2.4,0.1c-1,0-2,0.1-2.6,0.1
		c-0.3,0-0.8,0-1.4,0c-1,0-2.3-0.1-3.5-0.1c-0.4,0-0.9,0-0.9,0.5c0,0.5,0.5,0.5,0.8,0.5c0.6,0,1.1,0,1.4,0.1
		c1.1,0.2,1.4,0.8,1.4,1.9c0.1,1.1,0.1,2.1,0.1,7.6v6.3c0,3.3,0,6.1-0.2,7.6c-0.2,1.1-0.3,1.7-0.9,1.9c-0.4,0.1-0.8,0.1-1.3,0.1
		c-0.2,0-0.7,0-0.7,0.4c0,0.3,0.3,0.5,0.9,0.5c0.9,0,2,0,2.9-0.1c0.6,0,1.2,0,1.5,0c0.2,0,0.6,0,1.2,0c1.1,0,2.7,0.1,4.1,0.1
		c0.6,0,0.9-0.2,0.9-0.5c0-0.1,0-0.4-0.6-0.4c-0.4,0-1.2-0.1-1.7-0.1c-0.9-0.1-1.2-0.7-1.3-1.8c-0.2-1.5-0.2-4.4-0.2-7.7v-0.5
		c0-0.1,0-0.1,0.1-0.1l3.1,0.1c0.2,0,0.4,0,0.5,0.2c0.3,0.3,0.9,1.3,1.7,2.4c0.6,0.8,1.2,1.8,1.8,2.6c2.1,2.9,3.5,4.5,5,5.3
		c1,0.5,1.9,0.7,3.9,0.7h3.4c0.2,0,0.8,0,0.8-0.5C117.9,78.3,117.9,77.9,117.3,77.9z M104.8,59.8c0,3.3-1.3,4.7-2.1,5.3
		c-0.6,0.4-1,0.6-2.5,0.6c-1,0-2-0.1-2.7-0.3c-0.2-0.1-0.2-0.1-0.2-0.5V53.8c0-0.3,0.1-0.3,0.2-0.4c0.3-0.1,0.9-0.1,1.9-0.1
		C101.5,53.3,104.8,54.7,104.8,59.8z"/>
	<path class="st0" d="M172.5,51.3c-1.2,0-2.2,0-2.9,0.1c-0.3,0-0.5,0-0.7,0c-0.3,0-0.7,0-1.3,0c-0.9,0-1.9-0.1-3.1-0.1
		c-0.4,0-1.1,0-1.1,0.5c0,0.5,0.5,0.5,0.7,0.5c0.5,0,1.3,0,1.9,0.2c0.7,0.3,1.1,0.8,1.1,3.1l0.4,16c-0.3-0.3-1.3-1.4-2.5-2.6
		c-1.8-1.8-3.9-4.1-5.3-5.5c-5.3-5.3-10.8-11.1-11.2-11.4c-0.1-0.1-0.2-0.3-0.3-0.4c-0.4-0.5-0.7-0.8-1.1-0.8c-0.6,0-0.6,1-0.6,1.4
		l-0.3,21.2c0,3.1-0.2,4.1-1,4.3c-0.5,0.2-1.2,0.2-1.6,0.2c-0.2,0-0.7,0-0.7,0.4c0,0.5,0.6,0.5,0.9,0.5c1.3,0,2.6-0.1,3.3-0.1
		c0.3,0,0.5,0,0.6,0c0.2,0,0.6,0,1,0c0.8,0,1.9,0.1,3.5,0.1c0.3,0,1,0,1-0.5c0-0.4-0.6-0.4-0.8-0.4c-0.5,0-1.2,0-1.8-0.2
		c-0.5-0.2-1.1-0.8-1.2-3.9L149,59.1c0.1,0.1,0.3,0.3,0.5,0.5c1.4,1.5,4.7,5.1,7.9,8.3c1.5,1.5,3.2,3.2,4.8,4.8
		c2.3,2.3,4.5,4.5,5.8,5.8c0.4,0.4,0.9,0.8,1.3,0.8c0.5,0,0.6-0.6,0.6-1.3l0.4-22.7c0-2,0.3-2.7,1.2-2.9c0.4-0.1,0.7-0.1,1-0.1
		c0.7,0,0.8-0.3,0.8-0.5C173.5,51.3,172.8,51.3,172.5,51.3z"/>
	<path class="st0" d="M88,77.9c-0.3,0-0.6,0-1-0.1l0,0c-0.5-0.1-2-0.4-3.9-2.4c-1.8-1.9-3.9-4.6-6.6-7.9l-1.1-1.5
		c3.3-2.7,4.7-5.1,4.7-8.1c0-2.7-1.6-4.5-2.5-5.1c-2-1.4-4.5-1.6-6.7-1.6c-0.5,0-1.5,0-2.4,0.1c-1,0-2,0.1-2.6,0.1
		c-0.3,0-0.8,0-1.4,0c-1,0-2.3-0.1-3.5-0.1c-0.4,0-0.9,0-0.9,0.5c0,0.5,0.5,0.5,0.8,0.5c0.6,0,1.1,0,1.4,0.1
		c1.1,0.2,1.4,0.8,1.4,1.9c0.1,1.1,0.1,2.1,0.1,7.6v6.3c0,3.3,0,6.1-0.2,7.6c-0.2,1.1-0.3,1.7-0.9,1.9c-0.4,0.1-0.8,0.1-1.3,0.1
		c-0.2,0-0.7,0-0.7,0.4c0,0.3,0.3,0.5,0.9,0.5c0.9,0,2,0,2.9-0.1c0.6,0,1.2,0,1.5,0c0.2,0,0.6,0,1.2,0c1.1,0,2.7,0.1,4.1,0.1
		c0.6,0,0.9-0.2,0.9-0.5c0-0.1,0-0.4-0.6-0.4c-0.4,0-1.2-0.1-1.7-0.1c-0.9-0.1-1.2-0.7-1.3-1.8c-0.2-1.5-0.2-4.4-0.2-7.7v-0.5
		c0-0.1,0-0.1,0.1-0.1l3.1,0.1c0.2,0,0.4,0,0.5,0.2c0.3,0.3,0.9,1.3,1.7,2.4c0.6,0.8,1.2,1.8,1.8,2.6c2.1,2.9,3.5,4.5,5,5.3
		c1,0.5,1.9,0.7,3.9,0.7h3.4c0.2,0,0.8,0,0.8-0.5C88.6,78.3,88.5,77.9,88,77.9z M75.5,59.8c0,3.3-1.3,4.7-2.1,5.3
		c-0.6,0.4-1,0.6-2.5,0.6c-1,0-2-0.1-2.7-0.3c-0.2-0.1-0.2-0.1-0.2-0.5V53.8c0-0.3,0.1-0.3,0.2-0.4c0.3-0.1,0.9-0.1,1.9-0.1
		C72.1,53.3,75.5,54.7,75.5,59.8z"/>
</g>
<g>
	<path class="st1" d="M165.9,99.2c-0.2,0-0.3,0.2-0.3,0.3c0,0.2-0.2,0.6-0.3,0.8c-0.3,0.3-0.8,0.4-1.6,0.4c-1.1,0-1.4-0.1-1.6-0.3
		c-0.3-0.2-0.3-1.3-0.3-3v-2.5c0-2.2,0-2.6,0-3c0-0.5,0.1-0.6,0.4-0.7c0.2,0,0.4,0,0.5,0c0.1,0,0.4,0,0.4-0.3c0-0.3-0.3-0.3-0.4-0.3
		c-0.3,0-0.8,0-1.2,0c-0.3,0-0.6,0-0.8,0c-0.2,0-0.4,0-0.7,0c-0.4,0-0.9,0-1.2,0c-0.1,0-0.4,0-0.4,0.3c0,0.2,0.1,0.3,0.4,0.3
		c0.2,0,0.3,0,0.4,0c0.4,0.1,0.5,0.2,0.5,0.7c0,0.5,0,0.8,0,3v2.5c0,1.3,0,2.4-0.1,3c-0.1,0.4-0.1,0.6-0.3,0.7
		c-0.2,0-0.3,0.1-0.5,0.1c-0.3,0-0.4,0.1-0.4,0.2c0,0.1,0.1,0.3,0.4,0.3c0.1,0,0.3,0,0.5,0c0.2,0,0.4,0,0.5,0c0.3,0,0.7,0,0.8,0h0
		c0.6,0,1.1,0,1.7,0l0.5,0c0.5,0,1.2,0,1.9,0c0.8,0,0.9-0.1,1-0.5c0.1-0.4,0.2-1.5,0.2-1.7C166.1,99.5,166.1,99.2,165.9,99.2z"/>
	<path class="st1" d="M44.3,98.8c-0.2,0-0.3,0.2-0.3,0.4c-0.1,0.2-0.2,0.6-0.5,0.9c-0.6,0.6-1.3,0.8-2.5,0.8c-1.8,0-4.4-1.6-4.4-5
		c0-1.7,0.4-2.8,1.3-3.6c0.6-0.6,1.5-0.9,2.6-0.9c1.2,0,2.3,0.3,2.8,0.8c0.3,0.3,0.5,0.8,0.5,1.2c0,0.1,0,0.4,0.3,0.4
		c0.3,0,0.3-0.3,0.3-0.4c0-0.2,0-0.4,0-0.7c0-0.3,0-0.6,0-0.8c0-0.3,0-0.5,0.1-0.6c0-0.1,0-0.1,0-0.2c0-0.1,0-0.3-0.3-0.3
		c-0.2,0-0.4-0.1-0.7-0.1c-0.2,0-0.5-0.1-0.7-0.1c-0.6-0.1-1.2-0.1-2.1-0.1c-2,0-3.4,0.5-4.6,1.5c-1.6,1.5-1.7,3.4-1.7,4
		c0,1.8,0.6,3.3,1.8,4.3c1.2,1.1,2.8,1.6,5,1.6c0.9,0,2-0.1,2.6-0.3c0.3-0.1,0.4-0.2,0.4-0.5c0.1-0.5,0.3-1.7,0.3-1.9
		C44.6,98.8,44.4,98.8,44.3,98.8z"/>
	<path class="st1" d="M125.7,90.6c-0.1,0-0.1,0-0.3,0l-0.2,0c-0.2,0-0.5,0.1-1,0.1h-5.7c-0.4,0-1,0-1.4-0.1c-0.2,0-0.3-0.1-0.4-0.1
		c-0.1,0-0.1-0.1-0.2-0.1c-0.2,0-0.3,0.2-0.3,0.4c0,0.1-0.3,1.4-0.3,1.7c0,0.1,0,0.4,0.3,0.4c0.1,0,0.2-0.1,0.3-0.3
		c0-0.1,0.1-0.2,0.2-0.5c0.2-0.3,0.5-0.3,1.3-0.4l2-0.1v5.7c0,1.3,0,2.4-0.1,3c0,0.4-0.1,0.6-0.3,0.7c-0.1,0-0.3,0.1-0.5,0.1
		c-0.3,0-0.4,0.1-0.4,0.2c0,0.1,0.1,0.3,0.4,0.3c0.3,0,0.8,0,1.1,0c0.3,0,0.5,0,0.7,0c0.2,0,0.4,0,0.7,0c0.4,0,1,0,1.6,0
		c0.4,0,0.4-0.2,0.4-0.3c0-0.1,0-0.2-0.4-0.2c-0.2,0-0.5,0-0.7-0.1c-0.3,0-0.4-0.2-0.4-0.7c-0.1-0.6-0.1-1.7-0.1-3v-5.7l1.7,0
		c1,0,1.5,0.3,1.6,0.7l0,0.2c0,0.2,0,0.4,0.3,0.4c0.2,0,0.2-0.2,0.3-0.4c0-0.2,0-0.6,0-0.9c0-0.3,0-0.6,0-0.8
		C125.9,90.8,125.9,90.6,125.7,90.6z"/>
	<path class="st1" d="M103.8,101.2c-0.2,0-0.5,0-0.7-0.1c-0.3,0-0.4-0.2-0.5-0.6c-0.1-0.6-0.1-1.7-0.1-3.1v-2.5c0-2.2,0-2.6,0-3
		c0-0.5,0.1-0.6,0.4-0.7c0.2,0,0.3,0,0.4,0c0.2,0,0.4-0.1,0.4-0.3c0-0.2-0.3-0.2-0.4-0.2c-0.3,0-0.7,0-1,0c-0.3,0-0.5,0-0.7,0
		c-0.2,0-0.5,0-0.8,0c-0.4,0-0.8,0-1,0c-0.2,0-0.5,0-0.5,0.2c0,0.2,0.1,0.3,0.4,0.3c0.1,0,0.3,0,0.5,0.1c0.2,0,0.4,0.2,0.4,0.7
		c0,0.5,0,0.8,0,3v2.5c0,1.4,0,2.5-0.1,3.1c0,0.5-0.1,0.6-0.3,0.6c-0.1,0-0.3,0.1-0.5,0.1c-0.3,0-0.4,0.1-0.4,0.2
		c0,0.1,0.1,0.3,0.4,0.3c0.3,0,0.8,0,1.1,0c0.3,0,0.5,0,0.7,0c0.1,0,0.4,0,0.7,0c0.4,0,1,0,1.6,0c0.4,0,0.4-0.2,0.4-0.3
		C104.2,101.4,104.1,101.2,103.8,101.2z"/>
	<path class="st1" d="M147,101.2c-0.1,0-0.4,0-0.6-0.1c-0.2,0-0.6-0.1-1.2-1.5c-0.5-1.2-1.4-3.4-2.2-5.3c-0.7-1.6-1.2-3-1.4-3.4
		c-0.1-0.3-0.2-0.5-0.5-0.5c-0.2,0-0.3,0.2-0.5,0.6l-3.6,8.9c-0.3,0.7-0.6,1.1-1.1,1.2c-0.1,0-0.3,0-0.4,0c-0.3,0-0.3,0.1-0.3,0.2
		c0,0.3,0.3,0.3,0.4,0.3c0.5,0,1,0,1.4,0c0.2,0,0.3,0,0.3,0c0.2,0,0.5,0,0.7,0c0.3,0,0.5,0,0.8,0c0.1,0,0.4,0,0.4-0.3
		c0-0.2-0.2-0.2-0.3-0.2h-0.2c-0.4,0-0.4-0.2-0.4-0.3c0-0.1,0.1-0.5,0.2-0.8l0.8-2c0,0,0,0,0,0h3.2l0,0l1.1,2.9c0,0,0,0.1,0,0.1
		c0,0,0,0,0,0c-0.1,0-0.3,0-0.3,0.3c0,0.2,0.2,0.2,0.5,0.2l0.1,0c1.1,0,2.2,0,2.7,0c0.5,0,0.8,0,0.8-0.3
		C147.3,101.2,147.1,101.2,147,101.2z M142.1,97.1h-2.5l1.2-3.3L142.1,97.1z"/>
	<path class="st1" d="M67.4,101.2c-0.1,0-0.4,0-0.6-0.1c-0.2,0-0.6-0.1-1.2-1.5c-0.5-1.2-1.4-3.4-2.2-5.3c-0.6-1.6-1.2-3-1.4-3.3
		c-0.1-0.3-0.2-0.5-0.5-0.5c-0.2,0-0.3,0.2-0.5,0.6l-3.6,8.9c-0.3,0.7-0.6,1.1-1.1,1.2c-0.1,0-0.3,0-0.4,0c-0.3,0-0.3,0.1-0.3,0.2
		c0,0.3,0.3,0.3,0.4,0.3c0.5,0,1.1,0,1.4,0c0.2,0,0.3,0,0.3,0c0.2,0,0.5,0,0.7,0c0.3,0,0.5,0,0.8,0c0.1,0,0.4,0,0.4-0.3
		c0-0.2-0.2-0.2-0.3-0.2h-0.2c-0.4,0-0.4-0.2-0.4-0.3c0-0.2,0.1-0.5,0.2-0.8l0.8-2c0,0,0,0,0,0h3.2l0,0L64,101c0,0,0,0.1,0,0.1
		c0,0,0,0,0,0c-0.1,0-0.3,0-0.3,0.3c0,0.2,0.2,0.2,0.5,0.2l0.1,0c1.1,0,2.2,0,2.7,0c0.5,0,0.8,0,0.8-0.3
		C67.7,101.2,67.5,101.2,67.4,101.2z M62.5,97.1H60l1.2-3.3L62.5,97.1z"/>
	<path class="st1" d="M83.2,90.7c-0.3,0-0.7,0-1.1,0c-0.3,0-0.7,0-1,0c-0.2,0-0.4,0-0.7,0c-0.4,0-0.9,0-1.3,0c-0.1,0-0.4,0-0.4,0.3
		c0,0.2,0.1,0.3,0.4,0.3c0.2,0,0.4,0,0.5,0c0.4,0.1,0.5,0.2,0.5,0.7c0,0.5,0,0.8,0,3v2.5c0,1.3,0,2.4-0.1,3
		c-0.1,0.4-0.1,0.6-0.3,0.7c-0.1,0-0.3,0.1-0.5,0.1c-0.3,0-0.4,0.1-0.4,0.2c0,0.1,0.1,0.3,0.4,0.3c0.3,0,0.8,0,1.1,0
		c0.3,0,0.5,0,0.7,0c0.1,0,0.4,0,0.6,0c0.4,0,1,0,1.6,0c0.4,0,0.4-0.2,0.4-0.3c0-0.1,0-0.2-0.4-0.2c-0.2,0-0.5,0-0.7-0.1
		c-0.3,0-0.4-0.3-0.5-0.7c-0.1-0.6-0.1-1.7-0.1-3v-5.7c0-0.1,0-0.2,0-0.2c0.1,0,0.3-0.1,0.5-0.1c0.3,0,0.8,0.1,1.3,0.5
		c0.7,0.6,0.8,1.5,0.8,2c0,1.4-1,2.2-1.8,2.2c-0.2,0-0.5,0-0.5,0.3c0,0.2,0.2,0.2,0.3,0.3c0.1,0,0.2,0,0.3,0c2.1,0,3.6-1.5,3.6-3.6
		c0-0.7-0.4-1.4-0.8-1.8C85.7,91.3,85,90.7,83.2,90.7z"/>
</g>
<path class="st2" d="M118.3,19.6c0,0,6.3,4.5,23.8-3.3C159.7,8.5,184.2-9.2,198.4,6c0,0-12.2-6-28,3.1c0,0-5.5,2.6-14.2,7.1
	C145.5,21.6,130.2,25,118.3,19.6"/>
<path class="st0" d="M122.8,28.6c0,0,6.3,4.5,23.8-3.3c17.5-7.8,42.1-25.5,56.2-10.3c0,0-12.2-6-28,3.1c0,0-5.5,2.6-14.2,7.1
	C150,30.6,134.7,34,122.8,28.6"/>
<path class="st2" d="M127.3,37.6c0,0,6.3,4.5,23.8-3.3c17.5-7.8,42.1-25.5,56.2-10.3c0,0-12.2-6-28,3.1c0,0-5.5,2.6-14.2,7.1
	C154.5,39.6,139.2,43,127.3,37.6"/>
</svg>
