<?xml version="1.0" encoding="utf-8"?>
<!-- Generator: Adobe Illustrator 25.2.3, SVG Export Plug-In . SVG Version: 6.00 Build 0)  -->
<svg version="1.1" id="Layer_1" xmlns="http://www.w3.org/2000/svg" xmlns:xlink="http://www.w3.org/1999/xlink" x="0px" y="0px"
	 viewBox="0 0 168.9 161.1" style="enable-background:new 0 0 168.9 161.1;" xml:space="preserve">
<style type="text/css">
	.st0{fill-rule:evenodd;clip-rule:evenodd;fill:#A0A2A4;}
	.st1{fill-rule:evenodd;clip-rule:evenodd;fill:#003E7E;}
	.st2{fill:#003E7E;}
</style>
<g>
	<path class="st0" d="M168.9,91.8c-61.2-12.3-91.8,52-155,26.7C75.2,126.9,112,57.7,168.9,91.8z"/>
	<path class="st1" d="M162,74.9c-61.2-12.3-91.8,52-155,26.7C68.3,110,105.1,40.9,162,74.9z"/>
	<path class="st2" d="M157.6,4c-0.7-2.7-1.4-4-2.9-4c-1.9,0-4.3,2.1-10.3,2.5c-7,0.6-16.1,1-24,1H25.2c-7.7,0-13-0.6-16.6-1
		c-3.6-0.6-5.5-1-6.5-1c-1.7,0-1.9,1.3-1.9,4.4c0,4.4,0.7,18.8,0.7,24.3c0.2,2.1,0.7,3.3,2.2,3.3c1.9,0,2.4-1,2.6-4.2L6,27
		c0.5-5.4,7-11.3,28.4-11.7l30.3-0.6v46.7c1-0.5,2-1,3-1.6c8.8-4.5,17.7-9.1,27-12.6V14.6l35.8,0.8c13.9,0.4,19.7,1.5,23.3,6.1
		c2.4,3.1,3.6,5.7,4.1,7.3c0.5,1.7,1.2,2.5,2.6,2.5c1.7,0,2.2-1,2.2-3.3C162.6,24.7,158.1,5.6,157.6,4z"/>
	<path class="st0" d="M155,58.1c-61.2-12.3-91.8,52-155,26.7C61.3,93.2,98.1,24,155,58.1z"/>
	<g>
		<path class="st2" d="M81.6,93.5c4.3-2.2,8.7-4.4,13.1-6.6V76c-2.8,1.3-5.6,2.7-8.4,4.1c-7.1,3.5-14.2,7-21.7,10v10.2
			c0,0.5,0,1,0,1.5C70.4,99.3,76,96.4,81.6,93.5z"/>
		<path class="st2" d="M111.5,157.3c-3.6,0-6.5-0.4-8.6-0.8c-4.8-0.8-6.2-5.4-7-11.5c-0.8-6.2-1.1-16.3-1.2-28.4
			c-9.7,4.7-19.6,9.2-30.3,12c-0.2,6.8-0.5,12.5-1,16.6c-0.7,5.9-2.2,10.5-9.4,11.3c-3.4,0.4-8.7,0.8-12.3,0.8
			c-2.6,0-3.8,0.6-3.8,1.7c0,1.5,1.9,2.1,4.6,2.1c15.9,0,31-0.6,37.7-0.6c5.5,0,20.7,0.6,30.3,0.6c3.1,0,4.8-0.6,4.8-2.1
			C115.3,157.9,114.3,157.3,111.5,157.3z"/>
	</g>
</g>
</svg>
