<?xml version="1.0" encoding="utf-8"?>
<!-- Generator: Adobe Illustrator 25.3.1, SVG Export Plug-In . SVG Version: 6.00 Build 0)  -->
<svg version="1.1" id="Capa_1" xmlns="http://www.w3.org/2000/svg" xmlns:xlink="http://www.w3.org/1999/xlink" x="0px" y="0px"
	 viewBox="0 0 188.4 141" style="enable-background:new 0 0 188.4 141;" xml:space="preserve">
<style type="text/css">
	.st0{fill:none;}
	.st1{fill:#222221;}
	.st2{fill:#D7DCCD;}
	.st3{opacity:0.25;}
	.st4{clip-path:url(#SVGID_2_);fill:url(#XMLID_3_);}
</style>
<pattern  y="141" width="28.8" height="28.8" patternUnits="userSpaceOnUse" id="XMLID_4_" viewBox="1.4 -30.2 28.8 28.8" style="overflow:visible;">
	<g>
		<rect x="1.4" y="-30.2" class="st0" width="28.8" height="28.8"/>
		<g>
			<rect x="1.4" y="-30.2" class="st0" width="28.8" height="28.8"/>
			<g>
				<path class="st1" d="M30.2-31.6c0.8,0,1.4,0.6,1.4,1.4c0,0.8-0.6,1.4-1.4,1.4s-1.4-0.6-1.4-1.4C28.8-31,29.4-31.6,30.2-31.6z"/>
				<path class="st1" d="M15.8-31.6c0.8,0,1.4,0.6,1.4,1.4c0,0.8-0.6,1.4-1.4,1.4c-0.8,0-1.4-0.6-1.4-1.4C14.4-31,15-31.6,15.8-31.6
					z"/>
				<path class="st1" d="M30.2-17.2c0.8,0,1.4,0.6,1.4,1.4s-0.6,1.4-1.4,1.4s-1.4-0.6-1.4-1.4C28.8-16.6,29.4-17.2,30.2-17.2z"/>
				<path class="st1" d="M15.8-17.2c0.8,0,1.4,0.6,1.4,1.4s-0.6,1.4-1.4,1.4c-0.8,0-1.4-0.6-1.4-1.4C14.4-16.6,15-17.2,15.8-17.2z"
					/>
				<path class="st1" d="M8.6-24.4c0.8,0,1.4,0.6,1.4,1.4c0,0.8-0.6,1.4-1.4,1.4c-0.8,0-1.4-0.6-1.4-1.4C7.2-23.8,7.8-24.4,8.6-24.4
					z"/>
				<path class="st1" d="M23-24.4c0.8,0,1.4,0.6,1.4,1.4c0,0.8-0.6,1.4-1.4,1.4s-1.4-0.6-1.4-1.4S22.2-24.4,23-24.4z"/>
				<path class="st1" d="M8.6-10C9.4-10,10-9.4,10-8.6S9.4-7.2,8.6-7.2c-0.8,0-1.4-0.6-1.4-1.4C7.2-9.4,7.8-10,8.6-10z"/>
				<path class="st1" d="M23-10c0.8,0,1.4,0.6,1.4,1.4S23.8-7.2,23-7.2s-1.4-0.6-1.4-1.4S22.2-10,23-10z"/>
			</g>
			<g>
				<path class="st1" d="M1.4-31.6c0.8,0,1.4,0.6,1.4,1.4c0,0.8-0.6,1.4-1.4,1.4C0.6-28.7,0-29.4,0-30.2C0-31,0.6-31.6,1.4-31.6z"/>
				<path class="st1" d="M1.4-17.2c0.8,0,1.4,0.6,1.4,1.4s-0.6,1.4-1.4,1.4S0-15,0-15.8S0.6-17.2,1.4-17.2z"/>
			</g>
			<g>
				<path class="st1" d="M30.2-2.8c0.8,0,1.4,0.6,1.4,1.4S31,0,30.2,0s-1.4-0.6-1.4-1.4C28.8-2.2,29.4-2.8,30.2-2.8z"/>
				<path class="st1" d="M15.8-2.8c0.8,0,1.4,0.6,1.4,1.4S16.6,0,15.8,0c-0.8,0-1.4-0.6-1.4-1.4C14.4-2.2,15-2.8,15.8-2.8z"/>
			</g>
			<g>
				<path class="st1" d="M1.4-2.8c0.8,0,1.4,0.6,1.4,1.4S2.2,0,1.4,0C0.6,0.1,0-0.6,0-1.4C0-2.2,0.6-2.8,1.4-2.8z"/>
			</g>
		</g>
	</g>
</pattern>
<ellipse id="XMLID_194_" class="st2" cx="140.2" cy="92.7" rx="48.2" ry="48.2"/>
<g class="st3">
	<g>
		<defs>
			<rect id="SVGID_1_" x="0" y="0" width="188" height="141"/>
		</defs>
		<clipPath id="SVGID_2_">
			<use xlink:href="#SVGID_1_"  style="overflow:visible;"/>
		</clipPath>
		<pattern  id="XMLID_3_" xlink:href="#XMLID_4_" patternTransform="matrix(1.1199 0 0 1.1199 17246.8594 1014.3935)">
		</pattern>
		<path id="XMLID_1_" class="st4" d="M-8-2.7v114c2.5,2.5,5.2,4.9,8,7c31.6,24.3,77.1,21.9,106-7c31.5-31.5,31.5-82.5,0-114H-8z"/>
	</g>
</g>
</svg>
